<?xml version="1.0" encoding="UTF-8"?>
<svg width="100" height="100" viewBox="0 0 100 100" fill="none" xmlns="http://www.w3.org/2000/svg">
  <!-- Background circle -->
  <circle cx="50" cy="50" r="50" fill="#2c3e50"/>
  
  <!-- Question mark icon -->
  <path d="M50 20C58.284 20 65 26.716 65 35C65 41.18 61.516 46.544 56.5 48.72V52C56.5 53.38 55.38 54.5 54 54.5C52.62 54.5 51.5 53.38 51.5 52V47C51.5 45.62 52.62 44.5 54 44.5C57.038 44.5 59.5 42.038 59.5 39C59.5 35.962 57.038 33.5 54 33.5H50C46.962 33.5 44.5 35.962 44.5 39C44.5 40.38 43.38 41.5 42 41.5C40.62 41.5 39.5 40.38 39.5 39C39.5 31.544 45.544 25.5 53 25.5H50C41.716 25.5 35 31.216 35 39.5C35 40.88 36.12 42 37.5 42C38.88 42 40 40.88 40 39.5C40 34.216 44.216 30 49.5 30H50Z" fill="#ecf0f1"/>
  
  <!-- Dot -->
  <circle cx="50" cy="68" r="4" fill="#ecf0f1"/>
</svg> 